<?xml version="1.0" ?><svg width="64px" height="64px" viewBox="0 0 64 64" id="fill" xmlns="http://www.w3.org/2000/svg"><rect height="22" style="fill:#d9dae2" width="4" x="30" y="39"/><polygon points="47 59 32 51 17 59 15 55 32 46 49 55 47 59" style="fill:#cfcfd9"/><rect height="34" style="fill:#e5e6eb" width="50" x="7" y="7"/><rect height="34" style="fill:#d9dae2" width="50" x="7" y="7"/><path d="M7,7H57a0,0,0,0,1,0,0V7A34,34,0,0,1,23,41H7a0,0,0,0,1,0,0V7A0,0,0,0,1,7,7Z" style="fill:#e5e6eb"/><circle cx="19" cy="21" r="4" style="fill:#027de5"/><rect height="4" style="fill:#027de5" width="6" x="43" y="21"/><rect height="4" style="fill:#027de5" width="6" x="43" y="29"/><path d="M19.707,33.707l-1.414-1.414,8-8A1,1,0,0,1,27,24h3.586l4.707-4.707,1.414,1.414-5,5A1,1,0,0,1,31,26H27.414Z" style="fill:#027de5"/><polygon points="31 17 39 17 39 25 31 17" style="fill:#027de5"/><rect height="6" width="58" x="3" y="3"/><rect height="6" style="fill:#444" width="50" x="7" y="3"/><polygon points="9 17 9 11 15 11 9 17" style="fill:#fff"/><path d="M61,2H3A1,1,0,0,0,2,3V9a1,1,0,0,0,1,1H6V41a1,1,0,0,0,1,1H29v4.457L14.532,54.116a1,1,0,0,0-.427,1.331l2,4a1,1,0,0,0,1.366.436L29,53.734V61a1,1,0,0,0,1,1h4a1,1,0,0,0,1-1V53.734l11.529,6.149a1,1,0,0,0,1.366-.436l2-4a1,1,0,0,0-.427-1.331L35,46.457V42H57a1,1,0,0,0,1-1V10h3a1,1,0,0,0,1-1V3A1,1,0,0,0,61,2ZM8,8V4H56V8ZM4,4H6V8H4ZM33,60H31V52.667l1-.533,1,.533Zm13.564-2.365L32.471,50.117a1.007,1.007,0,0,0-.942,0L17.436,57.635l-1.105-2.208L32,47.132l15.669,8.3ZM33,45.4l-.532-.282a1.006,1.006,0,0,0-.936,0L31,45.4V42h2ZM56,40H8V10H56ZM60,8H58V4h2Z"/></svg>