<?xml version="1.0" ?><svg width="64px" height="64px" viewBox="0 0 64 64" xmlns="http://www.w3.org/2000/svg"><defs><style>.cls-1{fill:#5f443e;}.cls-2{fill:#7f5b53;}.cls-3{fill:#b49313;}.cls-4{fill:#f0c419;}.cls-5{fill:#f2f2f2;}.cls-6{fill:#559264;}.cls-7{fill:#71c285;}.cls-8{fill:#849eb4;}.cls-9{fill:#b0d3f0;}.cls-10{fill:#98856e;}.cls-11{fill:#cbb292;}.cls-12{fill:none;stroke:#000;stroke-linejoin:round;stroke-width:2px;}</style></defs><title/><g data-name="Layer 7" id="Layer_7"><polygon class="cls-1" points="62 22 2 22 32 4 62 22"/><polygon class="cls-2" points="2 22 57 22 29.5 5.5 2 22"/><circle class="cls-3" cx="47" cy="10" r="8"/><ellipse class="cls-4" cx="45.5" cy="10" rx="6.5" ry="7.85"/><rect class="cls-5" height="27" width="44" x="10" y="26"/><rect class="cls-6" height="4" width="16" x="24" y="30"/><rect class="cls-7" height="4" width="13" x="24" y="30"/><rect class="cls-8" height="6" width="6" x="14" y="34"/><rect class="cls-9" height="6" width="3" x="14" y="34"/><rect class="cls-8" height="6" width="6" x="14" y="40"/><rect class="cls-9" height="6" width="3" x="14" y="40"/><rect class="cls-8" height="6" width="6" x="44" y="40"/><rect class="cls-9" height="6" width="3" x="44" y="40"/><rect class="cls-8" height="6" width="6" x="44" y="34"/><rect class="cls-9" height="6" width="3" x="44" y="34"/><path class="cls-10" d="M24,54V46a8,8,0,0,1,8-8h0a8,8,0,0,1,8,8v8"/><path class="cls-11" d="M30.5,38.15A8,8,0,0,0,24,46v8H37V46A8,8,0,0,0,30.5,38.15Z"/><rect class="cls-10" height="8" width="60" x="2" y="54"/><rect class="cls-11" height="8" width="57" x="2" y="54"/><rect class="cls-6" height="4" width="28" x="18" y="58"/><rect class="cls-7" height="4" width="25" x="18" y="58"/><rect class="cls-6" height="4" width="24" x="20" y="54"/><rect class="cls-7" height="4" width="21" x="20" y="54"/><rect class="cls-10" height="20" width="4" x="54" y="30"/><rect class="cls-11" height="20" width="2" x="54" y="30"/><rect class="cls-10" height="20" width="4" x="6" y="30"/><rect class="cls-11" height="20" width="2" x="6" y="30"/><polyline class="cls-1" points="52 26 52 30 60 30 60 26"/><rect class="cls-2" height="4" width="5" x="52" y="26"/><polyline class="cls-1" points="52 50 52 54 60 54 60 50"/><rect class="cls-2" height="4" width="5" x="52" y="50"/><polyline class="cls-1" points="4 50 4 54 12 54 12 50"/><rect class="cls-2" height="4" width="5" x="4" y="50"/><polyline class="cls-1" points="4 26 4 30 12 30 12 26"/><rect class="cls-2" height="4" width="5" x="4" y="26"/><rect class="cls-10" height="4" width="60" x="2" y="22"/><rect class="cls-11" height="4" width="57" x="2" y="22"/><polyline class="cls-12" points="52.17 16.1 62 22 2 22 32 4 39.18 8.31"/><polyline class="cls-12" points="2 22 2 26 62 26 62 22"/><rect class="cls-12" height="4" width="28" x="18" y="58"/><rect class="cls-12" height="4" width="24" x="20" y="54"/><polyline class="cls-12" points="20 54 2 54 2 62 18 62"/><polyline class="cls-12" points="44 54 62 54 62 62 46 62"/><path class="cls-12" d="M24,54V46a8,8,0,0,1,8-8h0a8,8,0,0,1,8,8v8"/><polyline class="cls-12" points="4 26 4 30 12 30 12 26"/><polyline class="cls-12" points="4 54 4 50 12 50 12 54"/><line class="cls-12" x1="6" x2="6" y1="30" y2="51"/><line class="cls-12" x1="10" x2="10" y1="30" y2="51"/><polyline class="cls-12" points="52 26 52 30 60 30 60 26"/><polyline class="cls-12" points="52 54 52 50 60 50 60 54"/><line class="cls-12" x1="54" x2="54" y1="30" y2="51"/><line class="cls-12" x1="58" x2="58" y1="30" y2="51"/><rect class="cls-12" height="4" width="16" x="24" y="30"/><rect class="cls-12" height="12" width="6" x="14" y="34"/><rect class="cls-12" height="12" width="6" x="44" y="34"/><line class="cls-12" x1="14" x2="20" y1="40" y2="40"/><line class="cls-12" x1="44" x2="50" y1="40" y2="40"/><path class="cls-12" d="M50,6H47a2,2,0,0,0-2,2h0a2,2,0,0,0,2,2h0a2,2,0,0,1,2,2h0a2,2,0,0,1-2,2H44"/><circle class="cls-12" cx="47" cy="10" r="8"/><line class="cls-12" x1="47" x2="47" y1="6" y2="2"/><line class="cls-12" x1="47" x2="47" y1="14" y2="18"/></g></svg>