<?xml version="1.0" ?><svg width="64px" height="64px" viewBox="0 0 64 64" xmlns="http://www.w3.org/2000/svg"><defs><style>.cls-1{fill:#ccc;}.cls-2{fill:#f2f2f2;}.cls-3{fill:#559264;}.cls-4{fill:#71c285;}.cls-5{fill:#98856e;}.cls-6{fill:#cbb292;}.cls-7{fill:#849eb4;}.cls-8{fill:#b0d3f0;}.cls-9{fill:#5f443e;}.cls-10{fill:#7f5b53;}.cls-11{fill:none;stroke:#000;stroke-linejoin:round;stroke-width:2px;}</style></defs><title/><g data-name="Layer 19" id="Layer_19"><rect class="cls-1" height="46" width="56" x="4" y="12"/><rect class="cls-2" height="46" width="53" x="4" y="12"/><path class="cls-3" d="M32,12H42a0,0,0,0,1,0,0v9a5,5,0,0,1-5,5h0a5,5,0,0,1-5-5V12A0,0,0,0,1,32,12Z"/><path class="cls-4" d="M35.5,25.75A5,5,0,0,0,39,21V12H32v9A5,5,0,0,0,35.5,25.75Z"/><path class="cls-3" d="M22,12H32a0,0,0,0,1,0,0v9a5,5,0,0,1-5,5h0a5,5,0,0,1-5-5V12A0,0,0,0,1,22,12Z"/><path class="cls-4" d="M25.5,25.75A5,5,0,0,0,29,21V12H22v9A5,5,0,0,0,25.5,25.75Z"/><circle class="cls-1" cx="32" cy="13" r="11"/><ellipse class="cls-2" cx="30.5" cy="13" rx="9.5" ry="10.89"/><rect class="cls-3" height="4" width="10" x="44" y="30"/><rect class="cls-4" height="4" width="7" x="44" y="30"/><rect class="cls-5" height="20" width="14" x="42" y="38"/><rect class="cls-6" height="20" width="11" x="42" y="38"/><rect class="cls-5" height="6" width="28" x="8" y="46"/><rect class="cls-6" height="6" width="25" x="8" y="46"/><rect class="cls-7" height="16" width="28" x="8" y="30"/><rect class="cls-8" height="16" width="25" x="8" y="30"/><rect class="cls-9" height="4" width="60" x="2" y="58"/><rect class="cls-10" height="4" width="57" x="2" y="58"/><path class="cls-5" d="M27,8h8a0,0,0,0,1,0,0v8a2,2,0,0,1-2,2H29a2,2,0,0,1-2-2V8A0,0,0,0,1,27,8Z"/><path class="cls-6" d="M32,16V8H27v8a2,2,0,0,0,2,2h1A2,2,0,0,0,32,16Z"/><path class="cls-3" d="M52,12H62a0,0,0,0,1,0,0v9a5,5,0,0,1-5,5h0a5,5,0,0,1-5-5V12A0,0,0,0,1,52,12Z"/><path class="cls-4" d="M55.5,25.75A5,5,0,0,0,59,21V12H52v9A5,5,0,0,0,55.5,25.75Z"/><path class="cls-3" d="M42,12H52a0,0,0,0,1,0,0v9a5,5,0,0,1-5,5h0a5,5,0,0,1-5-5V12A0,0,0,0,1,42,12Z"/><path class="cls-4" d="M45.5,25.75A5,5,0,0,0,49,21V12H42v9A5,5,0,0,0,45.5,25.75Z"/><path class="cls-3" d="M12,12H22a0,0,0,0,1,0,0v9a5,5,0,0,1-5,5h0a5,5,0,0,1-5-5V12A0,0,0,0,1,12,12Z"/><path class="cls-4" d="M15.5,25.75A5,5,0,0,0,19,21V12H12v9A5,5,0,0,0,15.5,25.75Z"/><path class="cls-3" d="M2,12H12a0,0,0,0,1,0,0v9a5,5,0,0,1-5,5H7a5,5,0,0,1-5-5V12A0,0,0,0,1,2,12Z"/><path class="cls-4" d="M5.5,25.75A5,5,0,0,0,9,21V12H2v9A5,5,0,0,0,5.5,25.75Z"/><rect class="cls-11" height="4" width="60" x="2" y="58"/><line class="cls-11" x1="60" x2="60" y1="25" y2="58"/><line class="cls-11" x1="4" x2="4" y1="58" y2="25"/><path class="cls-11" d="M2,12H12a0,0,0,0,1,0,0v9a5,5,0,0,1-5,5H7a5,5,0,0,1-5-5V12A0,0,0,0,1,2,12Z"/><path class="cls-11" d="M22,17.59V21a5,5,0,0,1-5,5h0a5,5,0,0,1-5-5V12h9.05"/><path class="cls-11" d="M31,24a5,5,0,0,1-4,2h0a5,5,0,0,1-5-5V17.59"/><path class="cls-11" d="M42,17.59V21a5,5,0,0,1-5,5h0a5,5,0,0,1-4-2"/><path class="cls-11" d="M43,12h9v9a5,5,0,0,1-5,5h0a5,5,0,0,1-5-5V17.59"/><path class="cls-11" d="M52,12H62a0,0,0,0,1,0,0v9a5,5,0,0,1-5,5h0a5,5,0,0,1-5-5V12A0,0,0,0,1,52,12Z"/><circle class="cls-11" cx="32" cy="13" r="11"/><path class="cls-11" d="M27,8h8a0,0,0,0,1,0,0v8a2,2,0,0,1-2,2H29a2,2,0,0,1-2-2V8A0,0,0,0,1,27,8Z"/><path class="cls-11" d="M35,10h1a3,3,0,0,1,3,3h0a3,3,0,0,1-3,3H35"/><rect class="cls-11" height="22" width="28" x="8" y="30"/><polyline class="cls-11" points="42 58 42 38 56 38 56 58"/><line class="cls-11" x1="8" x2="36" y1="46" y2="46"/><line class="cls-11" x1="12" x2="18" y1="41" y2="35"/><line class="cls-11" x1="19" x2="25" y1="41" y2="35"/><line class="cls-11" x1="26" x2="32" y1="41" y2="35"/><line class="cls-11" x1="46" x2="46" y1="45" y2="51"/><rect class="cls-11" height="4" width="10" x="44" y="30"/></g></svg>